<svg width="25" height="25" viewBox="0 0 25 25" fill="none" xmlns="http://www.w3.org/2000/svg">
<path d="M17.7084 2.08334H7.29171C4.41522 2.08334 2.08337 4.41519 2.08337 7.29168V17.7083C2.08337 20.5848 4.41522 22.9167 7.29171 22.9167H17.7084C20.5849 22.9167 22.9167 20.5848 22.9167 17.7083V7.29168C22.9167 4.41519 20.5849 2.08334 17.7084 2.08334Z" stroke="white" stroke-width="2" stroke-linecap="round" stroke-linejoin="round"/>
<path d="M16.6667 11.8438C16.7952 12.7107 16.6472 13.5961 16.2435 14.374C15.8399 15.1519 15.2012 15.7827 14.4184 16.1768C13.6355 16.5708 12.7484 16.7079 11.8831 16.5687C11.0179 16.4295 10.2185 16.0209 9.59881 15.4012C8.9791 14.7815 8.57057 13.9822 8.43134 13.1169C8.29211 12.2516 8.42926 11.3645 8.82328 10.5816C9.2173 9.79882 9.84813 9.16016 10.626 8.75651C11.404 8.35287 12.2893 8.20479 13.1563 8.33334C14.0406 8.46447 14.8592 8.87653 15.4914 9.50866C16.1235 10.1408 16.5356 10.9595 16.6667 11.8438Z" stroke="white" stroke-width="2" stroke-linecap="round" stroke-linejoin="round"/>
<path d="M18.2291 6.77084H18.2395" stroke="white" stroke-width="2" stroke-linecap="round" stroke-linejoin="round"/>
</svg>
