<svg width="25" height="25" viewBox="0 0 25 25" fill="none" xmlns="http://www.w3.org/2000/svg">
<path d="M23.9583 3.12501C22.9608 3.82863 21.8563 4.36679 20.6875 4.71876C20.0601 3.99741 19.2263 3.48614 18.299 3.2541C17.3716 3.02205 16.3953 3.08042 15.5021 3.42131C14.609 3.76221 13.8421 4.36918 13.3052 5.16013C12.7682 5.95108 12.4871 6.88786 12.5 7.84376V8.88542C10.6694 8.93289 8.85545 8.5269 7.21976 7.7036C5.58407 6.8803 4.17737 5.66525 3.12496 4.16667C3.12496 4.16667 -1.04171 13.5417 8.33329 17.7083C6.18801 19.1646 3.63241 19.8947 1.04163 19.7917C10.4166 25 21.875 19.7917 21.875 7.81251C21.874 7.52235 21.8461 7.23292 21.7916 6.94792C22.8548 5.89948 23.605 4.57575 23.9583 3.12501V3.12501Z" stroke="white" stroke-width="2" stroke-linecap="round" stroke-linejoin="round"/>
</svg>
